<?xml version="1.0" encoding="utf-8"?>
<!-- Generator: Adobe Illustrator 25.2.1, SVG Export Plug-In . SVG Version: 6.00 Build 0)  -->
<svg version="1.1" id="Capa_1" xmlns="http://www.w3.org/2000/svg" xmlns:xlink="http://www.w3.org/1999/xlink" x="0px" y="0px"
	 viewBox="0 0 800 800" style="enable-background:new 0 0 800 800;" xml:space="preserve">
<style type="text/css">
	.st0{fill:#F0F8FF;}
</style>
<path class="st0" d="M400,239.8c-88.7,0-160.2,71.6-160.2,160.2S311.3,560.2,400,560.2S560.2,488.7,560.2,400S488.7,239.8,400,239.8
	z M400,504.1c-57.3,0-104.1-46.8-104.1-104.1S342.7,295.9,400,295.9S504.1,342.7,504.1,400S457.3,504.1,400,504.1z M566.8,195.9
	c-20.7,0-37.4,16.7-37.4,37.4s16.7,37.4,37.4,37.4s37.4-16.6,37.4-37.4C604.2,212.6,587.5,195.9,566.8,195.9
	C566.9,195.9,566.8,195.9,566.8,195.9z M712.3,400c0-43.1,0.4-85.9-2-128.9c-2.4-50-13.8-94.4-50.4-130.9
	c-36.6-36.6-80.9-48-130.9-50.4c-43.1-2.4-85.9-2-128.9-2c-43.1,0-85.9-0.4-128.9,2c-50,2.4-94.4,13.8-130.9,50.4
	c-36.6,36.6-48,80.9-50.4,130.9c-2.4,43.1-2,85.9-2,128.9s-0.4,85.9,2,128.9c2.4,50,13.8,94.4,50.4,130.9
	c36.6,36.6,80.9,48,130.9,50.4c43.1,2.4,85.9,2,128.9,2c43.1,0,85.9,0.4,128.9-2c50-2.4,94.4-13.8,130.9-50.4
	c36.6-36.6,48-80.9,50.4-130.9C712.8,485.9,712.3,443.1,712.3,400L712.3,400z M643.6,584.2c-5.7,14.2-12.6,24.8-23.6,35.8
	c-11,11-21.6,17.9-35.8,23.6c-41.1,16.3-138.7,12.7-184.2,12.7s-143.2,3.7-184.3-12.6c-14.2-5.7-24.8-12.6-35.8-23.6
	c-11-11-17.9-21.6-23.6-35.8c-16.2-41.2-12.6-138.8-12.6-184.3s-3.7-143.2,12.6-184.3c5.7-14.2,12.6-24.8,23.6-35.8
	c11-10.9,21.6-17.9,35.8-23.6c41.1-16.2,138.8-12.6,184.3-12.6s143.2-3.7,184.3,12.6c14.2,5.7,24.8,12.6,35.8,23.6
	c11,11,17.9,21.6,23.6,35.8c16.2,41.1,12.6,138.8,12.6,184.3S659.9,543.1,643.6,584.2z"/>
</svg>
