<?xml version="1.0" encoding="utf-8"?>
<!-- Generator: Adobe Illustrator 25.2.1, SVG Export Plug-In . SVG Version: 6.00 Build 0)  -->
<svg version="1.1" id="Capa_1" xmlns="http://www.w3.org/2000/svg" xmlns:xlink="http://www.w3.org/1999/xlink" x="0px" y="0px"
	 viewBox="0 0 1024 1024" style="enable-background:new 0 0 1024 1024;" xml:space="preserve">
<style type="text/css">
	.st0{fill:#D3D3D3;}
</style>
<path class="st0" d="M511.2,560.3c-26,32-45,66.9-75.6,92.8c-35.2,29.7-74.9,44.3-120.6,32.7c-42.5-10.7-60.3-41.8-52.3-84.5
	C275,536.9,294,474,308.8,410.1c0.7-3,2.7-5.9,2.5-8.7c-0.7-7.3,3.9-16.2-4.6-21.2c-8.5-4.8-14.6,2.3-20.1,6.6
	c-22.4,18.3-35.9,43.4-46.8,69.2c-4.6,10.5-8.5,11.4-16.4,7.1c-7.1-3.7-17.1-5.3-10.3-18c26.7-50,55.5-97.6,117.7-108.7
	c18.5-3.4,37.2-3.9,54.1,3.4c40.4,17.6,48.9,37.2,37.2,87.7c-13.9,60.3-29.7,120.2-45.2,180c-3,11.4-8.2,24.4,2.3,31.8
	c11.7,8,25.6,2.1,36.3-6.2c26.5-20.6,43.9-48.4,60.1-77.4c35-61.7,56.9-128.2,71.7-197.2c2.7-12.6,6.4-16.2,18.7-15.8
	c27.9,0.9,55.7,0.7,83.4,0.2c12.3-0.2,17.8,0.5,13.5,16.4c-18.3,67.2-35,134.8-51.9,202.4c-3.2,12.6-4.8,25.6-5.3,38.6
	c-0.9,18,5.9,32.9,22.8,41.6c19,9.8,36.1,2.1,50.9-8.9c17.4-12.8,32.4-28.6,43.6-47.5c20.6-35.9,42.7-71.3,50.5-112.4
	c5.3-28.3,5-46.6-28.6-44.6c-28.8,1.8-47.1-17.1-47.5-44.3c-0.5-24.4,21.9-47.7,47.5-49.3c40.4-2.5,69.5,27.9,68.1,76.3
	c-1.6,58.3-19.4,112.4-49.1,162.7c-25.1,42.7-53,82.2-101,103c-50.7,21.9-95.7,17.4-127.3-15.8c-16.4-17.4-24.4-38.6-24.9-62.6
	C511.2,585.9,511.2,573.1,511.2,560.3z"/>
</svg>
